<?xml version="1.0" encoding="utf-8"?>
<!-- Generator: Adobe Illustrator 25.2.3, SVG Export Plug-In . SVG Version: 6.00 Build 0)  -->
<svg version="1.1" id="Layer_1" xmlns="http://www.w3.org/2000/svg" xmlns:xlink="http://www.w3.org/1999/xlink" x="0px" y="0px"
	 viewBox="0 0 300 140" style="enable-background:new 0 0 300 140;" xml:space="preserve">
<style type="text/css">
	.st0{fill:#00A896;}
	.st1{fill:#29327B;}
</style>
<g>
	<g>
		<path class="st0" d="M97,124.4c-1.1,0.6-2.7,0.9-3.9,0.9h-2.7v7c-0.5,0.1-0.9,0.1-1.4,0.1c-0.5,0-0.9-0.1-1.3-0.1v-18.5
			c0.9-0.1,3.5-0.1,5.2-0.1c4,0,6.7,1.2,6.7,5.6C99.6,121.4,98.7,123.4,97,124.4z M92.9,115.8c-0.7,0-2.1,0.1-2.5,0.1v7.3h2.4
			c2.2,0,4-0.7,4-3.8C96.8,116.6,95.2,115.8,92.9,115.8z"/>
		<path class="st0" d="M109.6,119.9c-1.4,0.1-3,0.6-4.3,1.5v10.9c-0.4,0.1-0.9,0.1-1.3,0.1c-0.4,0-0.9,0-1.3-0.1V118
			c0.3-0.1,0.7-0.1,1-0.1c0.3,0,0.7,0.1,1.1,0.1l0.2,1.6h0c1.2-1.1,2.9-1.9,4.6-1.9c0.1,0.3,0.1,0.5,0.1,1.1
			C109.7,119.2,109.7,119.5,109.6,119.9z"/>
		<path class="st0" d="M117,132.5c-3.9,0-6.3-2.5-6.3-7.4s2.5-7.4,6.3-7.4c3.9,0,6.3,2.6,6.3,7.4C123.3,130,120.8,132.5,117,132.5z
			 M117,119.7c-2.4,0-3.7,1.6-3.7,5.5c0,3.8,1.3,5.4,3.7,5.4c2.4,0,3.7-1.6,3.7-5.4C120.6,121.3,119.4,119.7,117,119.7z"/>
		<path class="st0" d="M137.3,129.8c0,2.3-0.1,4.4-1.1,6.2c-1.2,2-3.6,3-5.8,3c-1.2,0-2.2-0.1-3.4-0.5c-0.1-0.3-0.1-0.6-0.1-0.9
			c0-0.3,0-0.6,0.1-0.9c1,0.3,2.1,0.4,3,0.4c3.4,0,4.8-2,4.8-5.5V131c-0.8,0.8-2.1,1.4-3.7,1.4c-3.7,0-5.7-2.8-5.7-6.9
			c0-4.8,2.8-7.8,7.3-7.8c1.7,0,3.6,0.4,4.7,0.9V129.8z M134.7,119.9c-0.6-0.2-1.5-0.2-2.3-0.2c-3.1,0-4.5,2.7-4.5,5.8
			c0,3,1,4.9,3.4,4.9c1.2,0,2.4-0.4,3.4-1.3V119.9z"/>
		<path class="st0" d="M147.8,119.9c-1.4,0.1-3,0.6-4.3,1.5v10.9c-0.4,0.1-0.9,0.1-1.3,0.1c-0.4,0-0.9,0-1.3-0.1V118
			c0.3-0.1,0.7-0.1,1-0.1c0.3,0,0.7,0.1,1.1,0.1l0.2,1.6h0c1.2-1.1,2.9-1.9,4.6-1.9c0.1,0.3,0.1,0.5,0.1,1.1
			C147.9,119.2,147.9,119.5,147.8,119.9z"/>
		<path class="st0" d="M155.7,132.5c-2.1,0-3.8-0.7-4.9-1.8c-1.3-1.3-1.9-3.3-1.9-5.5c0-3.8,2.1-7.5,6.4-7.5c3.9,0,5.4,3.1,5.4,6.6
			c0,0.5,0,1-0.1,1.6h-9.1c0.1,1.2,0.5,2.6,1.4,3.5c0.8,0.8,2.1,1.2,3.3,1.2c1.2,0,2.5-0.1,3.6-0.4c0.1,0.2,0.1,0.5,0.1,0.8
			c0,0.3,0,0.6-0.1,0.9C158.4,132.5,157.1,132.5,155.7,132.5z M158,124c0-2-0.3-4.2-2.9-4.2c-2.4,0-3.5,2.1-3.6,4.2H158z"/>
		<path class="st0" d="M166.9,132.5c-1.4,0-3.1-0.2-4.1-0.6c-0.1-0.3-0.1-0.6-0.1-1c0-0.3,0-0.7,0.1-1c1.1,0.4,2.7,0.7,3.9,0.7
			c1.7,0,3-0.6,3-2.2c0-1.3-0.8-1.8-2.8-2.6c-2.7-1-4.2-2.1-4.2-4.3c0-2.8,2.5-3.9,5-3.9c1.1,0,2.5,0.2,3.3,0.5
			c0.1,0.3,0.1,0.5,0.1,0.8c0,0.3-0.1,0.7-0.1,1c-0.9-0.2-2.2-0.5-3.1-0.5c-1.4,0-2.7,0.4-2.7,1.9c0,1.2,1.1,1.7,2.8,2.4
			c2.5,1,4.2,1.7,4.2,4.4C172.2,131.3,169.7,132.5,166.9,132.5z"/>
		<path class="st0" d="M178.4,132.5c-1.4,0-3.1-0.2-4.1-0.6c-0.1-0.3-0.1-0.6-0.1-1c0-0.3,0-0.7,0.1-1c1.1,0.4,2.7,0.7,3.9,0.7
			c1.7,0,3-0.6,3-2.2c0-1.3-0.8-1.8-2.8-2.6c-2.7-1-4.2-2.1-4.2-4.3c0-2.8,2.5-3.9,5-3.9c1.1,0,2.5,0.2,3.3,0.5
			c0.1,0.3,0.1,0.5,0.1,0.8c0,0.3-0.1,0.7-0.1,1c-0.9-0.2-2.2-0.5-3.1-0.5c-1.4,0-2.7,0.4-2.7,1.9c0,1.2,1.1,1.7,2.8,2.4
			c2.5,1,4.2,1.7,4.2,4.4C183.6,131.3,181.2,132.5,178.4,132.5z"/>
		<path class="st0" d="M203.6,132.3h-10.8v-18.5h10.4c0.1,0.3,0.1,0.8,0.1,1.1c0,0.4,0,0.8-0.1,1.1h-7.6v5.6h6.6
			c0.1,0.3,0.1,0.8,0.1,1.1c0,0.4,0,0.8-0.1,1.1h-6.6v6.2h8c0.1,0.3,0.1,0.8,0.1,1.1C203.8,131.5,203.8,131.9,203.6,132.3z"/>
		<path class="st0" d="M218.5,132.3c-0.4,0.1-0.8,0.1-1.2,0.1c-0.5,0-0.9-0.1-1.4-0.1v-8.8c0-2.3-0.5-3.6-2.7-3.6
			c-1.5,0-2.9,0.6-3.9,1.3v11.1c-0.5,0.1-1,0.1-1.4,0.1c-0.4,0-0.8-0.1-1.2-0.1V118c0.4-0.1,0.7-0.1,1-0.1c0.3,0,0.7,0.1,1,0.1
			l0.2,1.3h0c1.4-1.1,3.1-1.6,4.7-1.6c1.3,0,2.8,0.4,3.7,1.4c1,1.1,1.1,2.7,1.1,4.1V132.3z"/>
		<path class="st0" d="M231.5,132.4c-0.3,0-0.8-0.1-1.1-0.1l-0.2-1.4h0c-0.9,1.2-2.5,1.7-4.2,1.7c-2.7,0-4.8-1.6-4.8-4.3
			c0-4.1,3.5-5.1,6.8-5.1c0.3,0,1.5,0,1.9,0.1v-0.3c0-2.3-1-3.2-3.3-3.2c-1.2,0-3,0.2-3.9,0.4c-0.1-0.3-0.1-0.6-0.1-0.9
			c0-0.3,0.1-0.6,0.1-0.9c1.2-0.4,3-0.7,4.4-0.7c3.4,0,5.4,1.5,5.4,4.9v5.9c0,1.1,0,2.6,0,3.7C232.2,132.4,231.8,132.4,231.5,132.4z
			 M229.9,125.2c-0.4-0.1-1.1-0.1-1.8-0.1c-2.7,0-4.2,1-4.2,2.9c0,1.6,1.1,2.5,2.7,2.5c1.2,0,2.7-0.7,3.3-1.5V125.2z"/>
		<path class="st0" d="M240.7,132.5c-1.2,0-3-0.2-4.6-0.8v-19.4c0.4-0.1,0.8-0.1,1.3-0.1s0.9,0,1.3,0.1v7c1-0.9,2.4-1.5,3.9-1.5
			c3.7,0,5.6,2.9,5.6,6.8C248.2,129.4,245.7,132.5,240.7,132.5z M242.2,119.8c-1.4,0-2.6,0.6-3.5,1.6v8.9c0.5,0.2,1.4,0.3,2.1,0.3
			c3.4,0,4.7-2.5,4.7-5.9C245.5,121.6,244.3,119.8,242.2,119.8z"/>
		<path class="st0" d="M253.6,132.3c-0.5,0.1-0.9,0.1-1.4,0.1c-0.4,0-0.8-0.1-1.2-0.1v-20c0.4-0.1,0.9-0.1,1.3-0.1s0.8,0,1.3,0.1
			V132.3z"/>
		<path class="st0" d="M263.2,132.5c-2.1,0-3.8-0.7-4.9-1.8c-1.3-1.3-1.9-3.3-1.9-5.5c0-3.8,2.1-7.5,6.4-7.5c3.9,0,5.4,3.1,5.4,6.6
			c0,0.5,0,1-0.1,1.6h-9.1c0.1,1.2,0.5,2.6,1.4,3.5c0.8,0.8,2.1,1.2,3.3,1.2c1.2,0,2.5-0.1,3.6-0.4c0.1,0.2,0.1,0.5,0.1,0.8
			c0,0.3,0,0.6-0.1,0.9C265.9,132.5,264.6,132.5,263.2,132.5z M265.6,124c0-2-0.3-4.2-2.9-4.2c-2.4,0-3.5,2.1-3.6,4.2H265.6z"/>
		<path class="st0" d="M277.9,119.9c-1.4,0.1-3,0.6-4.3,1.5v10.9c-0.4,0.1-0.9,0.1-1.3,0.1c-0.4,0-0.9,0-1.3-0.1V118
			c0.3-0.1,0.7-0.1,1-0.1c0.3,0,0.7,0.1,1.1,0.1l0.2,1.6h0c1.2-1.1,2.9-1.9,4.6-1.9c0.1,0.3,0.1,0.5,0.1,1.1
			C278,119.2,278,119.5,277.9,119.9z"/>
		<path class="st0" d="M283.7,132.5c-1.4,0-3.1-0.2-4.1-0.6c-0.1-0.3-0.1-0.6-0.1-1c0-0.3,0-0.7,0.1-1c1.1,0.4,2.7,0.7,3.9,0.7
			c1.7,0,3-0.6,3-2.2c0-1.3-0.8-1.8-2.8-2.6c-2.7-1-4.2-2.1-4.2-4.3c0-2.8,2.5-3.9,5-3.9c1.1,0,2.5,0.2,3.3,0.5
			c0.1,0.3,0.1,0.5,0.1,0.8c0,0.3-0.1,0.7-0.1,1c-0.9-0.2-2.2-0.5-3.1-0.5c-1.4,0-2.7,0.4-2.7,1.9c0,1.2,1.1,1.7,2.8,2.4
			c2.5,1,4.2,1.7,4.2,4.4C288.9,131.3,286.5,132.5,283.7,132.5z"/>
	</g>
</g>
<g>
	<path class="st1" d="M107.8,103.4c-15.8,0-24.2-11-24.2-29.8s8.4-29.8,24.2-29.8c15.8,0,24.2,11,24.2,29.8S123.7,103.4,107.8,103.4
		z M107.8,54.3c-7.4,0-11.6,5.7-11.6,19.3c0,13.6,4.2,19.3,11.6,19.3c7.4,0,11.6-5.7,11.6-19.3C119.4,59.9,115.2,54.3,107.8,54.3z"
		/>
	<path class="st1" d="M184.8,102.5c-1.5,0.3-3.7,0.4-6.1,0.4c-2.4,0-4.5-0.2-6.2-0.4V75.4h-20.1v27.1c-1.6,0.3-3.5,0.4-6.1,0.4
		c-2.3,0-4.5-0.2-6.2-0.4V44.6c1.6-0.3,4-0.4,6.2-0.4c2.4,0,4.5,0.2,6.1,0.4v26h20.1v-26c1.9-0.3,4-0.4,6.2-0.4
		c2.1,0,4.6,0.2,6.1,0.4V102.5z"/>
	<path class="st1" d="M230.9,102.5h-35.5V44.6c1.6-0.3,3.9-0.4,6-0.4c2.4,0,4.7,0.2,6.3,0.4v47.5h23.2c0.3,0.9,0.6,2.7,0.6,5.1
		C231.5,99.1,231.4,100.7,230.9,102.5z"/>
	<path class="st1" d="M288.9,102.5c-1.1,0.3-3.8,0.4-6.6,0.4c-2.2,0-4.8-0.3-5.9-0.4l-6.1-17.1h-16.9l-5.9,17.1
		c-1.9,0.3-4.1,0.4-6.3,0.4c-2.2,0-4.8-0.2-6.1-0.4l20.2-57.9c1.2-0.3,4-0.4,5.9-0.4c2.3,0,5.1,0.2,6,0.4L288.9,102.5z M268.4,80.6
		l-5.1-16.4c-0.6-1.9-1.2-4.3-1.7-6.9h-0.2c-0.4,2.7-1.1,5.1-1.7,6.9L255,80.6H268.4z"/>
</g>
<g>
	<polygon class="st0" points="62.8,131.1 25,131.1 24.7,132.5 62.9,132.5 	"/>
	<polygon class="st0" points="26.7,124.4 62.3,125.6 62.1,124.2 27.1,123 	"/>
	<polygon class="st0" points="28.8,116.3 61.6,118.6 61.5,117.2 29.2,114.9 	"/>
	<polygon class="st0" points="30.8,108.3 60.9,111.6 60.8,110.1 31.2,106.9 	"/>
	<polygon class="st0" points="32.9,100.3 60.3,104.5 60.1,103 33.2,98.9 	"/>
	<polygon class="st0" points="34.9,92.4 59.6,97.2 59.5,95.7 35.2,91 	"/>
	<polygon class="st0" points="36.9,84.6 58.9,89.9 58.8,88.4 37.2,83.2 	"/>
	<path class="st0" d="M58.2,82.5L58.1,81l-18.8-5.4c-0.1,0.5-0.3,0.9-0.4,1.4L58.2,82.5z"/>
	<path class="st0" d="M57.5,75l-0.1-1.6l-16.3-5.6c-0.1,0.5-0.2,1-0.3,1.4L57.5,75z"/>
	<path class="st0" d="M56.8,67.3l-0.2-1.6l-14.1-5.6c-0.1,0.5-0.2,1-0.2,1.5L56.8,67.3z"/>
	<path class="st0" d="M56.1,59.5l-0.2-1.7l-12.3-5.7c-0.1,0.5-0.1,1-0.2,1.5L56.1,59.5z"/>
	<path class="st0" d="M55.3,51.5l-0.2-1.7l-10.8-5.7c0,0.5-0.1,1.1-0.1,1.6L55.3,51.5z"/>
	<path class="st1" d="M12.1,107.7h0.2c0.6-0.3,2.7-1.4,5.4-3.7h-5.6L12.1,107.7z"/>
	<path class="st1" d="M12.1,97.4l0,3.7c2.1-0.1,4.4-0.2,6.9-0.3c0.7,0,1.5-0.1,2.2-0.1c1-1.1,2.1-2.4,3.2-3.8
		c-2.4,0.1-4.9,0.2-7.3,0.3C15.3,97.2,13.6,97.3,12.1,97.4z"/>
	<path class="st1" d="M12,90.6l0,3.7c1.9-0.2,4-0.4,6.3-0.6c2.9-0.3,5.8-0.5,8.5-0.7c0.8-1.2,1.5-2.5,2.3-3.9c-4.1,0.3-8.6,0.6-13,1
		C14.7,90.4,13.4,90.5,12,90.6z"/>
	<path class="st1" d="M12,83.8l0,3.8c1.6-0.3,3.3-0.5,5.1-0.8c4.9-0.7,9.8-1.2,14.1-1.6c0.6-1.2,1.2-2.5,1.7-3.9
		c-5.2,0.5-11.5,1.1-17.6,2C14.2,83.5,13.1,83.7,12,83.8z"/>
	<path class="st1" d="M12,77l0,3.8c1-0.2,2.1-0.4,3.2-0.7c6.8-1.3,13.8-2.3,19.3-2.9c0.4-1.2,0.9-2.5,1.3-3.9
		C30,73.9,22.1,75,14.5,76.5C13.7,76.6,12.8,76.8,12,77z"/>
	<path class="st1" d="M12,70l0,3.8c0.8-0.2,1.7-0.5,2.6-0.7c7.9-2,16.4-3.3,22.5-4c0.3-1.2,0.7-2.5,1-3.8c-6.2,0.6-15.4,2-24.4,4.2
		C13.1,69.7,12.5,69.9,12,70z"/>
	<path class="st1" d="M11.9,63l0,3.9c0.7-0.2,1.3-0.4,2-0.6c8.6-2.6,18.4-4.4,25.1-5.1c0.3-1.2,0.5-2.5,0.8-3.8
		c-8.2,0.6-19.5,3-26.9,5.3C12.5,62.8,12.2,62.9,11.9,63z"/>
	<path class="st1" d="M11.9,55.9l0,4c0.5-0.2,0.9-0.3,1.4-0.5c9.5-3.5,20.2-5.6,27.2-6c0.2-1.2,0.4-2.5,0.6-3.8
		C33.8,50,22.2,52.1,12,55.9C12,55.9,12,55.9,11.9,55.9z"/>
	<path class="st1" d="M11.9,52.7c0.3-0.1,0.5-0.2,0.7-0.3c10.3-4.4,21.8-6.6,29-7c0.1-1.2,0.3-2.5,0.4-3.7c-7.6,0.3-19.3,2.4-30.2,7
		L11.9,52.7z"/>
	<path class="st1" d="M11.9,45.5c0,0,0.1,0,0.1-0.1c9.2-4.5,21.2-7.6,30.4-7.9c0.1-1.2,0.2-2.5,0.3-3.7c-8.5,0.1-20.5,2.7-30.8,7.6
		L11.9,45.5z"/>
	<path class="st1" d="M11.9,38.3c9.3-5.1,21.1-8.3,31.1-8.4c0.1-1.2,0.1-2.5,0.2-3.7c-10,0.1-21.7,3.1-31.3,8L11.9,38.3z"/>
	<path class="st1" d="M11.8,30.9c9.2-5.5,20.8-8.8,31.4-8.9c0-1.2,0-2.5,0.1-3.7c-10.5,0-22,3.1-31.5,8.3L11.8,30.9z"/>
	<path class="st1" d="M43.3,10.5c-11,0-22.2,3.1-31.5,8.6l0,4.4c8.9-5.8,20.5-9.2,31.5-9.2C43.3,13,43.3,11.8,43.3,10.5z"/>
	<path class="st1" d="M43.1,2.7c-11.2,0.1-22.3,3.2-31.3,8.8l0,4.4c9-6.2,20.4-9.4,31.4-9.5C43.2,5.2,43.1,4,43.1,2.7z"/>
</g>
</svg>
